<?xml version="1.0" encoding="UTF-8" standalone="no"?>
<svg
   xmlns:dc="http://purl.org/dc/elements/1.1/"
   xmlns:cc="http://creativecommons.org/ns#"
   xmlns:rdf="http://www.w3.org/1999/02/22-rdf-syntax-ns#"
   xmlns:svg="http://www.w3.org/2000/svg"
   xmlns="http://www.w3.org/2000/svg"
   xmlns:sodipodi="http://sodipodi.sourceforge.net/DTD/sodipodi-0.dtd"
   xmlns:inkscape="http://www.inkscape.org/namespaces/inkscape"
   inkscape:version="1.0 (4035a4fb49, 2020-05-01)"
   sodipodi:docname="deepfates-color.svg"
   id="svg8"
   version="1.1"
   viewBox="0 0 66.145836 66.145836"
   height="66.145836mm"
   width="66.145836mm"
   inkscape:export-filename="/home/maze/Hacking/digital-garden/default-starter/static/deepfates.png"
   inkscape:export-xdpi="168.01024"
   inkscape:export-ydpi="168.01024">
  <defs
     id="defs2" />
  <sodipodi:namedview
     inkscape:window-maximized="1"
     inkscape:window-y="25"
     inkscape:window-x="0"
     inkscape:window-height="1026"
     inkscape:window-width="1920"
     showgrid="false"
     inkscape:document-rotation="0"
     inkscape:current-layer="layer1"
     inkscape:document-units="mm"
     inkscape:cy="101.74006"
     inkscape:cx="76.097698"
     inkscape:zoom="1.806488"
     inkscape:pageshadow="2"
     inkscape:pageopacity="0.0"
     borderopacity="1.0"
     bordercolor="#666666"
     pagecolor="#ffffff"
     id="base" />
  <metadata
     id="metadata5">
    <rdf:RDF>
      <cc:Work
         rdf:about="">
        <dc:format>image/svg+xml</dc:format>
        <dc:type
           rdf:resource="http://purl.org/dc/dcmitype/StillImage" />
        <dc:title></dc:title>
      </cc:Work>
    </rdf:RDF>
  </metadata>
  <g
     inkscape:label="Layer 2"
     id="layer2"
     inkscape:groupmode="layer" />
  <g
     transform="translate(-86.007584,-89.924706)"
     id="layer1"
     inkscape:groupmode="layer"
     inkscape:label="Layer 1">
    <path
       transform="matrix(0.26458333,0,0,0.26458333,86.007584,89.924706)"
       d="m 126.5,21.564453 c -18.58209,0.02575 -19.20894,0.09496 -28.5,3.166016 -5.225008,1.72707 -11.184197,3.583141 -13.242188,4.123047 -2.057952,0.539905 -4.982973,1.931227 -6.5,3.09375 -1.517026,1.162526 -6.092617,4.31603 -10.167968,7.005859 -4.075351,2.689852 -8.575345,6.625363 -10,8.746094 -1.424655,2.12073 -4.520745,5.600504 -6.88086,7.732422 C 44.364407,61.614456 34.151755,75.747402 28.398438,87 c -3.52893,6.902022 -6.316915,21.55175 -6.470704,34 -0.163721,13.25269 0.451749,17.46246 4.523438,30.92578 C 27.852757,156.5602 29,161.83488 29,163.64648 c 0,2.47563 0.72091,3.82666 2.902344,5.43946 1.596313,1.18023 3.899914,4.08452 5.11914,6.45508 1.219231,2.37055 4.6382,7.34869 7.597657,11.0625 C 47.578601,190.31735 50,193.95086 50,194.67773 50,195.40458 50.597309,196 51.326172,196 c 0.728867,0 3.860742,1.91251 6.960937,4.25 8.833777,6.66051 11.796743,8.55586 17.962891,11.48828 3.16252,1.50395 5.75,3.26012 5.75,3.9043 0,2.34939 -9.898767,9.96406 -18.375,14.13476 -5.832189,2.86969 -9.064596,5.09136 -9.820312,6.75 C 53.18511,237.88718 52.137153,239 51.474609,239 c -0.662543,0 -2.349621,0.90001 -3.748047,2 -1.398421,1.09999 -3.730531,2 -5.183593,2 -3.444711,0 -8.203661,2.4963 -9.548828,5.00977 -0.161657,0.30217 -0.284214,0.55819 -0.04883,0.77539 L 34,247.93164 v 0.002 C 37.309354,245.25576 40.498972,244 43.996094,244 c 3.520819,0 8.926037,-3.46704 11.546875,-7.40625 1.213417,-1.82385 4.236351,-3.92157 7.957031,-5.52148 7.65411,-3.29133 10.874461,-5.46387 16.623047,-11.2168 2.553033,-2.55496 5.707832,-4.97709 7.009765,-5.38086 1.301934,-0.40373 4.466678,-1.7884 7.033204,-3.07813 l 4.666015,-2.3457 0.642578,3.79883 c 0.353008,2.0897 0.545181,4.21585 0.425782,4.72461 -0.119433,0.50872 0.125609,1.71329 0.546879,2.67578 1.31705,3.00986 -0.1171,4.75 -3.91602,4.75 C 93.096567,225 93,225.10559 93,228.87695 c 0,2.13264 0.566827,4.34878 1.259766,4.92383 0.692976,0.57513 4.180463,1.35574 7.750004,1.73438 3.89548,0.41317 6.96997,1.29257 7.6914,2.20117 0.66104,0.83263 1.88674,1.25245 2.72266,0.93164 0.83595,-0.32088 2.77084,-0.20279 4.29883,0.26172 1.52802,0.46465 4.68985,1.36384 7.02734,1.99804 4.23715,1.1497 5.59674,3.34116 2.75,4.4336 -0.825,0.31672 -1.5,1.49015 -1.5,2.60742 0,1.60714 -1.40774,1.93339 -25.085938,1.99219 8.786498,8.8e-4 14.939028,0.0115 26.300778,0.008 17.99935,-0.006 31.87622,-0.0273 43.80274,-0.0625 C 160.38485,249.76468 155,249.45933 155,249 c 0,-0.55 2.03676,-1 4.52539,-1 4.01533,0 4.64224,-0.30952 5.57227,-2.75 2.20157,-5.77705 2.18398,-8.0458 -0.0879,-11.23633 -1.39454,-1.95847 -2.51851,-5.55466 -3.03321,-9.70508 -1.02731,-8.28347 -3.45744,-11.32154 -7.5625,-9.45117 -3.27666,1.49295 -4.6296,0.50478 -1.9707,-1.43945 2.58119,-1.88742 7.56794,-1.79856 10.40039,0.18555 1.36925,0.95901 3.50613,1.42585 5.31641,1.16015 2.39905,-0.35225 3.2378,0.014 4.03906,1.77344 1.07955,2.36935 12.19916,9.46289 14.83398,9.46289 0.86816,0 3.07181,1.10107 4.89649,2.44727 1.82464,1.34619 4.72363,2.7463 6.44336,3.11132 1.71968,0.36511 3.80195,1.22806 4.62695,1.91797 0.825,0.68992 2.62501,1.5207 4,1.84571 1.37499,0.32503 3.38763,1.23961 4.47266,2.0332 1.76356,1.28988 1.82881,1.71314 0.61328,3.98437 -0.8061,1.50622 -1.11085,3.78563 -0.74805,5.59961 l 0.50586,2.53321 c 5.62549,-0.201 7.41774,-0.47697 6.90625,-0.86524 C 216.88548,247.19206 216.38591,245 217.92773,245 c 0.51009,0 1.81295,1.12501 2.89454,2.5 0.42011,0.53409 0.91007,0.98137 1.43164,1.35156 0.0159,-0.0745 0.0288,-0.14763 0.0605,-0.23047 0.29103,-0.75798 0.0305,-1.87456 -0.57617,-2.48242 -2.09091,-2.09095 0.2971,-2.5033 2.96484,-0.51172 2.28641,1.70708 3.26063,2.90694 2.94141,3.61328 0.22032,-0.29883 0.35547,-0.67271 0.35547,-1.14257 0,-1.33304 -2.97166,-3.72891 -9.92188,-8 -5.45691,-3.35339 -10.29437,-6.09771 -10.75,-6.09571 -0.45558,0.002 -2.62809,-0.87545 -4.82812,-1.94922 -2.19999,-1.07372 -8.49999,-4.06823 -14,-6.65429 -18.64944,-8.76892 -19.22649,-10.17031 -7.18359,-17.41797 4.29857,-2.58694 9.49141,-6.34039 11.54101,-8.3418 2.04968,-2.00141 4.24049,-3.63867 4.86914,-3.63867 0.62865,0 2.39195,-1.73641 3.91797,-3.85938 1.52599,-2.12296 3.95799,-4.3076 5.4043,-4.85351 2.31107,-0.87235 2.63843,-1.56467 2.70117,-5.71289 0.0404,-2.67432 0.71732,-5.44612 1.5625,-6.39649 0.82046,-0.92254 2.93427,-5.27772 4.69727,-9.67773 5.89443,-14.71121 7.92483,-18.33004 9.97851,-17.79297 1.33187,0.34828 2.32003,-0.40221 3.47656,-2.63867 1.49915,-2.89928 1.48964,-3.33456 -0.11718,-6.05469 -1.62713,-2.75452 -1.62855,-3.04639 -0.0391,-4.80273 C 230.5451,132.8446 231,130.52985 231,125.60547 c 0,-3.70534 0.38109,-7.49555 0.8457,-8.42188 C 232.93791,115.00583 232.09956,107 230.7793,107 c -0.55654,0 -0.79784,1.1237 -0.53516,2.49805 0.26272,1.37435 -0.12514,3.28686 -0.86328,4.25 -1.91221,2.49505 -2.97607,0.48697 -3.76172,-7.10157 -0.35002,-3.38109 -1.49099,-8.956983 -2.53516,-12.392574 -2.14151,-7.0464 -1.83903,-9.823623 1.15821,-10.607422 1.96131,-0.512882 1.98113,-0.656073 0.4082,-3.05664 C 223.74259,79.204345 223,77.379503 223,76.535156 223,74.826583 220.46476,74.438942 219.5,76 218.3991,77.781291 217.55903,77.078198 214,71.398438 212.07501,68.3264 209.12141,64.167374 207.43555,62.15625 205.74969,60.145126 202.23573,55.68748 199.62695,52.25 197.01817,48.812482 194.4616,46 193.94531,46 193.42903,46 191.31607,44.506737 189.25195,42.681641 180.74182,35.156979 167.78857,28.430654 153,23.857422 c -6.74763,-2.086617 -9.40607,-2.31678 -26.5,-2.292969 z M 227.64453,249.24023 c -0.10957,0.14863 -0.23581,0.28142 -0.38867,0.38868 0.18951,-0.10608 0.31994,-0.23659 0.38867,-0.38868 z m -0.38867,0.38868 c -0.43374,0.24279 -1.17781,0.36614 -2.24414,0.36914 0.88865,0.13131 1.69412,0.0168 2.24414,-0.36914 z m -2.24414,0.36914 c -0.89607,-0.13241 -1.87182,-0.51764 -2.75781,-1.14649 -0.17479,0.81892 0.6148,1.14844 2.72265,1.14844 0.0135,0 0.0218,-0.002 0.0352,-0.002 z m -13.16797,-0.52539 c -6.74806,0.24111 -19.92244,0.36897 -41.82617,0.43359 3.85604,0.0567 8.22084,0.0937 13.45703,0.0937 h 28.47461 z m -111.929688,0.48828 c -52.696287,-0.005 -65.848193,-0.14183 -66.96875,-1.17578 L 31.5,249.95508 l 46.75,0.0234 c 9.345134,0.004 15.681407,-0.003 21.664062,-0.0176 z M 124.57812,67.697266 c 10.11387,-0.0038 12.103,0.328141 22.88868,3.814453 10.48289,3.388573 12.90879,4.637523 21.54297,11.09375 C 177.88803,89.244209 181.48731,93 178.96875,93 178.43603,93 178,93.450003 178,94 c 0,0.549997 0.675,1 1.5,1 0.82503,0 1.5,0.767705 1.5,1.707031 0,0.939288 1.67577,3.425229 3.72461,5.523439 3.40675,3.48884 3.79648,4.47623 4.55469,11.54297 1.03914,9.685 1.03676,10.12451 -0.13868,19.22656 -1.60765,12.45029 -4.17186,19.90744 -8.04882,23.41602 -1.15091,1.0416 -2.0918,2.77597 -2.0918,3.85351 0,1.77865 -7.45858,9.59149 -9.25,9.68945 -1.46181,0.0797 -0.72516,-7.32989 0.9082,-9.13476 1.37322,-1.51737 1.4769,-2.47695 0.60157,-5.57813 C 169.11568,147.65004 168,141.87869 168,138.38867 168,128.04777 161.36216,117 155.15039,117 c -1.48845,0 -3.68251,-0.68485 -4.87695,-1.52148 -3.716,-2.60278 -40.71076,-1.68622 -44.69922,1.10742 -1.1102,0.7776 -2.84819,1.41406 -3.86133,1.41406 -1.01318,0 -4.048543,0.94779 -6.74414,2.10742 -4.009701,1.7249 -5.453153,3.08779 -7.935547,7.48633 -1.668888,2.95706 -3.035068,6.39482 -3.037109,7.64063 -0.0021,1.24584 -0.902047,3.73826 -2,5.53906 -2.479068,4.06601 -2.498604,3.88314 0.488281,4.63281 2.972031,0.74593 3.24844,1.84403 3.861328,15.34375 0.439257,9.67529 0.355837,10.25 -1.496094,10.25 -1.079093,0 -4.187257,-2.32039 -6.90625,-5.15625 -2.718992,-2.83586 -4.95711,-6.09834 -4.974609,-7.25 -0.0189,-1.15162 -0.692504,-2.96755 -1.5,-4.03516 C 70.661254,153.49095 70,151.18417 70,149.43164 c 0,-1.75253 -0.671123,-3.74437 -1.492188,-4.42578 -0.821026,-0.68141 -1.963818,-3.09962 -2.539062,-5.37305 -0.575282,-2.27342 -1.929135,-5.76963 -3.007812,-7.76953 -2.501745,-4.63812 -2.467098,-6.34404 0.207031,-10.09961 1.914028,-2.688 2.04314,-3.52332 1.085937,-7.10937 -0.918652,-3.44183 -0.792624,-4.63958 0.830078,-7.82032 C 66.137641,104.76862 67,102.14384 67,101 c 0,-3.265398 3.750724,-9.786214 6.048828,-10.515625 1.145575,-0.363591 4.267352,-2.533384 6.935547,-4.822266 16.347024,-14.023067 26.110655,-17.95668 44.593745,-17.964843 z m 33.97657,11.568359 C 156.99829,79.2434 156,80.310184 156,82.267578 c 0,5.133959 6.23262,6.551335 6.81055,1.548828 0.22148,-1.916371 -0.30082,-3.008811 -1.82813,-3.826172 -0.89642,-0.479763 -1.72028,-0.714507 -2.42773,-0.724609 z M 228.79883,98 c -0.89772,0 -0.21125,5.4061 0.93164,7.33789 0.27239,0.46054 0.96,0.37203 1.52734,-0.19531 C 232.44258,103.95781 230.39129,98 228.79883,98 Z m -109.67188,21.03516 c 4.76629,-0.0367 7.90353,0.98322 18.56055,6.0332 3.40282,1.6125 6.47915,2.93164 6.83594,2.93164 0.3569,0 3.30976,2.70221 6.5625,6.00586 4.90186,4.97854 5.91406,6.59454 5.91406,9.4375 0,3.12491 -0.28314,3.45879 -3.19141,3.74414 -3.05571,0.29994 -3.2699,0.61185 -4.97851,7.3125 -0.98173,3.85002 -1.7953,8.44126 -1.80664,10.20312 -0.0175,2.45666 -1.0725,4.23853 -4.52344,7.64063 -4.35825,4.29668 -4.5,4.629 -4.5,10.54687 0,5.87664 -0.0964,6.10938 -2.53906,6.10938 -1.39692,0 -4.2094,0.84166 -6.25,1.87109 -7.04402,3.55355 -7.76422,3.52792 -12.16211,-0.44531 -3.06218,-2.7665 -4.22441,-4.69054 -4.71485,-7.79883 -0.48551,-3.0768 -1.77751,-5.24118 -5.07617,-8.50586 -3.48937,-3.45346 -4.27419,-4.82661 -3.71289,-6.5 1.30847,-3.90088 1.02785,-8.84343 -0.54492,-9.58789 -6.93445,-3.28229 -7.545275,-3.8106 -9.015625,-7.79101 -0.853531,-2.31065 -2.998684,-5.69451 -4.767578,-7.51953 C 86.771858,140.20012 86,138.5177 86,135.70312 86,131.41204 88.791289,128 92.302734,128 c 1.266633,0 4.195422,-1.39127 6.507813,-3.0918 4.584533,-3.37152 13.042483,-5.81711 20.316403,-5.87304 z M 111.44141,242 c -3.80055,0 -4.72883,2.1508 -1.69141,3.91992 2.43481,1.41816 3.80592,1.31828 5.21289,-0.37695 C 116.7401,243.40153 115.34728,242 111.44141,242 Z M 135,249.11133 c 0.99688,0 1.99375,0.0573 2.75,0.17187 1.51249,0.22904 0.27513,0.41797 -2.75,0.41797 -3.02502,0 -4.26249,-0.18881 -2.75,-0.41797 0.75625,-0.11452 1.75312,-0.17187 2.75,-0.17187 z"
       style="fill:#d6b06a;fill-opacity:0.46666667;stroke-width:3.77953;stroke-miterlimit:4;stroke-dasharray:none"
       id="path881" />
    <path
       d="m 114.71229,95.774478 c -0.35973,0.0053 -0.90715,0.197814 -1.89807,0.608232 -1.92401,0.796886 -4.12931,1.479496 -4.78007,1.479496 -0.27264,0 -0.78178,0.267891 -1.13171,0.595312 -0.34992,0.327422 -0.99769,0.773907 -1.43919,0.992188 -1.27594,0.630824 -3.29881,1.965644 -3.30781,2.182814 -0.019,0.45111 1.00154,0.15189 1.57923,-0.46302 0.34177,-0.3638 0.82262,-0.66146 1.06867,-0.66146 0.24605,0 0.75034,-0.23813 1.12034,-0.529167 0.37,-0.291042 0.84625,-0.529167 1.05834,-0.529167 0.21208,0 0.68833,-0.238126 1.05833,-0.529167 0.37,-0.291042 0.83251,-0.532835 1.02784,-0.537435 0.19533,-0.0046 0.58622,-0.183221 0.86869,-0.396875 0.28248,-0.213653 0.75045,-0.388606 1.03973,-0.388606 0.28928,0 0.89153,-0.114512 1.33842,-0.254249 0.4469,-0.139736 1.37237,-0.401863 2.05672,-0.582909 0.9706,-0.256767 1.18154,-0.40492 0.95963,-0.672311 -0.17326,-0.208766 -0.33929,-0.317783 -0.61909,-0.313676 z m 5.73557,0.09715 c -0.58384,0.0062 -1.03586,0.04249 -1.22886,0.117305 -0.32617,0.12643 0.46959,0.260281 2.11666,0.356051 4.66068,0.270994 10.23236,2.444985 13.38317,5.221906 4.18254,3.68623 4.78631,4.48789 7.37371,9.78958 1.96966,4.0359 2.44834,6.51308 2.12235,10.98021 -0.13806,1.89177 -0.37206,4.10697 -0.51987,4.92322 -0.3684,2.03435 -1.49155,4.93028 -2.27221,5.85803 -0.35559,0.42261 -0.64698,0.90827 -0.64751,1.07901 -7.9e-4,0.33139 -1.469,2.58866 -2.77709,4.2695 -1.78155,2.28923 -2.96786,3.40454 -4.69222,4.41162 -0.99803,0.58288 -2.21155,1.40829 -2.69699,1.83452 -0.88397,0.77613 -1.83061,1.00409 -2.13372,0.51366 -0.85418,-1.38211 -1.20645,-6.09542 -0.52297,-6.99906 0.43427,-0.57416 0.49994,-0.94154 0.16795,-0.94154 -0.1214,0 -0.74648,0.77994 -1.38906,1.73323 -0.88146,1.30763 -1.61865,2.02229 -3.00137,2.91041 -1.00802,0.64745 -1.99873,1.17719 -2.20193,1.17719 -0.50725,0 -0.29894,0.89924 0.23203,1.00149 0.23358,0.045 0.79627,-0.23054 1.25005,-0.61236 1.14687,-0.96503 1.78148,-0.78745 1.68258,0.47129 -0.0432,0.55018 0.22028,1.83524 0.60565,2.95175 0.37537,1.08756 0.75258,2.56574 0.83768,3.28456 l 0.15451,1.30689 -1.4981,0.56069 c -0.82404,0.30831 -2.03753,0.56069 -2.69648,0.56069 -0.65895,0 -1.43593,0.12716 -1.72651,0.28267 -0.39741,0.21269 -1.10609,0.14714 -2.85977,-0.26458 -1.28223,-0.30103 -2.62118,-0.54726 -2.97553,-0.54726 -0.35436,0 -0.83731,-0.14882 -1.07332,-0.33072 -0.38724,-0.29848 -0.39307,-0.53126 -0.063,-2.3859 0.20112,-1.13023 0.45414,-2.19882 0.56275,-2.37454 0.10859,-0.17572 0.3228,-1.15453 0.47594,-2.17506 0.32786,-2.18484 0.644,-2.37308 2.22622,-1.32602 1.07085,0.70866 1.88885,0.78801 2.08411,0.20154 0.0588,-0.17653 -0.21176,-0.40097 -0.60099,-0.49867 -1.12944,-0.28348 -4.54631,-3.15491 -5.14077,-4.32015 -0.29245,-0.57322 -0.64004,-1.10925 -0.77257,-1.19115 -0.42642,-0.26354 -1.35392,-2.26416 -1.35392,-2.92023 0,-0.49685 -0.15895,-0.65394 -0.7276,-0.71934 -0.60631,-0.0698 -0.74171,-0.22744 -0.81081,-0.94413 -0.0699,-0.7251 0.0285,-0.90222 0.62529,-1.12913 0.5782,-0.21981 0.67251,-0.377 0.51573,-0.85937 -0.10557,-0.32483 -0.25098,-1.04135 -0.32298,-1.59164 -0.0954,-0.72957 -0.36211,-1.17675 -0.98599,-1.65261 -0.79589,-0.60705 -0.84342,-0.73117 -0.68161,-1.77767 0.25397,-1.64248 0.70883,-2.30497 1.96422,-2.86029 0.61507,-0.27207 1.33742,-0.73721 1.60559,-1.03353 0.26817,-0.29633 0.61985,-0.53847 0.78135,-0.53847 0.16151,0 0.74853,-0.24369 1.30431,-0.54157 0.9022,-0.48355 1.53963,-0.54731 5.94899,-0.59531 3.63813,-0.0396 5.18258,0.0407 5.86476,0.30541 2.19184,0.85035 2.79082,1.25423 3.2489,2.19108 0.4657,0.95241 0.56017,1.38027 1.40095,6.33656 l 0.43046,2.53732 -0.62528,0.67541 c -0.34406,0.37125 -0.77818,1.19394 -0.9648,1.82831 -0.18663,0.63437 -0.40009,1.29231 -0.47439,1.46244 -0.28256,0.64703 2.28671,-0.42653 3.24269,-1.35495 0.53158,-0.51627 1.0578,-0.93845 1.16944,-0.93845 0.11163,0 0.2794,-0.34915 0.37311,-0.77566 0.0937,-0.42651 0.34939,-0.924 0.56792,-1.10536 0.95619,-0.79357 1.55686,-2.62233 1.94562,-5.92419 0.11992,-1.01865 0.34099,-2.24239 0.49144,-2.71921 0.20767,-0.65816 0.18184,-1.08645 -0.10697,-1.77767 -0.20924,-0.50077 -0.38034,-1.48319 -0.38034,-2.18333 0,-1.07881 -0.13346,-1.41282 -0.87437,-2.19108 -0.48084,-0.50508 -1.01793,-1.41351 -1.19372,-2.01848 -0.34779,-1.19686 -0.93044,-1.77004 -4.10466,-4.03851 -1.44842,-1.03512 -2.76557,-1.69255 -4.73046,-2.36162 -2.54478,-0.86658 -2.94789,-0.92842 -6.16241,-0.94412 -2.8895,-0.0141 -3.75373,0.0817 -5.40484,0.59789 -1.94909,0.60937 -5.70272,2.83472 -6.76806,4.01268 -0.28991,0.32055 -0.97142,0.80925 -1.51412,1.08624 -1.12001,0.57161 -1.43853,1.09782 -2.45981,4.06228 -0.61041,1.77183 -0.6795,2.23356 -0.43201,2.88923 0.24612,0.65205 0.20868,0.91955 -0.22841,1.62677 -0.6603,1.0684 -0.66346,2.13766 -0.01,3.20963 0.2811,0.46102 0.50072,1.20751 0.48782,1.65933 -0.0143,0.50198 0.19816,1.05732 0.54622,1.42782 0.34954,0.37207 0.56948,0.94945 0.56948,1.49448 0,0.48848 0.18775,1.09539 0.41703,1.34875 0.35679,0.39424 0.52825,0.83625 0.62115,1.59991 0.0111,0.0915 0.59022,0.76365 1.28675,1.49396 1.21942,1.27854 2.77512,2.17609 3.77238,2.17609 0.31044,0 0.5833,0.32488 0.78393,0.93276 0.16931,0.51303 0.57868,1.25717 0.9095,1.65365 0.33082,0.39648 0.79897,1.10555 1.04025,1.57613 0.42597,0.83084 0.41631,0.90492 -0.33486,2.5616 -0.63375,1.39771 -0.9677,1.80533 -1.8464,2.25361 -1.33903,0.6828 -1.74498,0.6838 -2.69441,0.008 -0.41621,-0.29637 -1.14895,-0.67009 -1.62833,-0.83044 -0.47938,-0.16035 -1.10991,-0.48671 -1.40095,-0.72553 -0.29104,-0.23881 -1.11609,-0.84041 -1.83348,-1.33687 -1.32158,-0.91459 -4.242857,-3.78164 -5.696807,-5.59088 -0.43739,-0.54428 -1.04328,-1.62378 -1.34669,-2.39933 -0.3034,-0.77554 -0.70129,-1.64838 -0.88367,-1.93942 -0.626507,-0.99979 -1.697057,-4.25762 -1.873267,-5.69991 -0.29755,-2.4356 -0.33255,-5.3045 -0.0935,-7.66155 0.37989,-3.74643 0.45092,-4.17413 0.85524,-5.1418 0.23095,-0.55273 0.28782,-0.99494 0.14005,-1.08624 -0.26826,-0.16579 -0.53847,0.4208 -1.04904,2.2748 -0.17796,0.64626 -0.48754,1.55055 -0.68781,2.00969 -0.52883,1.21238 -0.548,9.25163 -0.0248,10.45828 0.83182,1.91844 0.98444,2.38335 0.98444,3.00188 0,1.12237 0.81574,2.81615 2.819467,5.85494 2.82027,4.27712 5.811477,7.00226 10.475847,9.54412 0.69122,0.37668 1.25677,0.7733 1.25677,0.88108 0,0.54601 -3.09348,2.89825 -5.12165,3.89434 -1.54815,0.76034 -2.40271,1.34647 -2.60295,1.78594 -0.16393,0.35979 -0.441197,0.65422 -0.616497,0.65422 -0.17529,0 -0.62167,0.23813 -0.99167,0.52917 -0.37,0.29104 -0.98704,0.52917 -1.37149,0.52917 -0.91142,0 -2.17056,0.66047 -2.52646,1.3255 v 0.001 c -0.0431,0.0805 -0.0756,0.14844 -0.0155,0.20618 l 0.28163,-0.22792 c 0.8756,-0.7085 1.71952,-1.04024 2.6448,-1.04024 0.93155,0 2.361687,-0.91732 3.055117,-1.95957 0.32105,-0.48256 1.12086,-1.03758 2.10529,-1.46089 2.02515,-0.87083 2.87721,-1.44565 4.39819,-2.96778 0.67549,-0.676 1.5102,-1.31686 1.85467,-1.42369 0.34447,-0.10682 1.18181,-0.47318 1.86087,-0.81442 l 1.23455,-0.62063 0.17001,1.0051 c 0.0934,0.5529 0.14425,1.11545 0.11266,1.25006 -0.0316,0.1346 0.0332,0.45331 0.14469,0.70796 0.34847,0.79636 -0.031,1.25678 -1.03611,1.25678 -0.90876,0 -0.93431,0.0279 -0.93431,1.02577 0,0.56426 0.14997,1.15062 0.33331,1.30276 0.18335,0.15217 1.10608,0.35871 2.05052,0.45889 1.03068,0.10932 1.84414,0.342 2.03502,0.5824 0.1749,0.2203 0.4992,0.33137 0.72037,0.24649 0.22118,-0.0849 0.73312,-0.0537 1.1374,0.0693 0.40429,0.12294 1.24085,0.36085 1.85931,0.52865 1.12108,0.30419 1.48081,0.88401 0.72761,1.17305 -0.21828,0.0838 -0.39688,0.39427 -0.39688,0.68988 0,0.52369 -0.23764,0.53647 -11.89023,0.53124 3.05477,0.005 6.29788,0.007 11.08718,0.007 h 23.8218 l 0.004,-0.7276 c 0.007,-1.29445 0.32528,-1.48943 1.39837,-0.85628 0.52546,0.31002 1.02824,0.79335 1.11724,1.07383 0.0353,0.11122 0.10306,0.20312 0.18862,0.28009 -0.004,-0.0398 7.9e-4,-0.084 0.0207,-0.13591 0.077,-0.20055 0.008,-0.49598 -0.15244,-0.65681 -0.55322,-0.55323 0.0786,-0.66233 0.78445,-0.13539 0.5569,0.41579 0.81904,0.71771 0.79168,0.90899 0.0498,-0.0717 0.0806,-0.1559 0.0806,-0.25528 0,-0.3527 -0.78625,-0.98661 -2.62517,-2.11667 -1.4438,-0.88725 -2.72373,-1.61284 -2.84427,-1.6123 -0.12054,5.3e-4 -0.69536,-0.23016 -1.27744,-0.51263 -0.58208,-0.28248 -2.44766,-1.18152 -4.14548,-1.99782 -1.69782,-0.81629 -3.2227,-1.64816 -3.38894,-1.84846 -0.18159,-0.21877 -0.23359,-0.73013 -0.13023,-1.28106 0.13441,-0.7165 0.44483,-1.09421 1.41904,-1.72548 2.04652,-1.3261 5.91213,-4.90406 6.94376,-6.42699 1.98872,-2.93584 3.52353,-6.42527 4.63951,-10.54975 0.36231,-1.33888 0.46168,-2.71603 0.44959,-6.21771 -0.0155,-4.47213 -0.021,-4.51451 -0.99271,-7.37164 -1.2968,-3.81297 -2.15552,-5.35262 -4.84052,-8.67904 -1.47022,-1.82146 -4.32222,-4.43855 -6.03942,-5.541785 -1.26518,-0.812828 -4.9713,-2.480873 -6.08542,-2.738851 -0.43657,-0.101087 -1.15094,-0.341947 -1.5875,-0.535368 -0.68981,-0.30562 -3.62799,-0.558693 -5.37952,-0.540018 z m 25.80411,59.950862 c -0.065,0.0936 -0.16455,0.16394 -0.28577,0.21032 0.17684,-0.039 0.27135,-0.10945 0.28577,-0.21032 z m -0.28577,0.21032 c -0.11231,0.0248 -0.25576,0.0377 -0.43357,0.0377 -0.12693,0 -0.22568,-0.008 -0.3178,-0.017 0.25234,0.0687 0.5334,0.0627 0.75137,-0.0207 z m -0.75137,0.0207 c -0.15487,-0.0422 -0.29694,-0.11267 -0.40721,-0.21187 0.0126,0.11964 0.14501,0.18512 0.40721,0.21187 z m -38.02456,0.0109 c -9.737447,-0.0144 -12.216687,-0.0712 -12.468487,-0.31316 l -0.379827,0.30748 12.369274,0.006 c 0.20664,1e-4 0.27925,-5.2e-4 0.47904,-5.2e-4 z M 117.1938,96.041723 c -0.19183,-9.52e-4 -0.39303,0.01435 -0.55759,0.04599 -0.32912,0.06329 -0.12217,0.117506 0.45992,0.120406 0.58209,0.0029 0.85138,-0.04902 0.59841,-0.115238 -0.12648,-0.03309 -0.30892,-0.0502 -0.50074,-0.05116 z m 1.77508,11.794627 c 2.67596,-10e-4 3.20225,0.0863 6.05596,1.00873 2.7736,0.89656 3.41545,1.22753 5.69992,2.93574 2.34903,1.7565 3.30134,2.75022 2.63498,2.75022 -0.14095,0 -0.25632,0.11906 -0.25632,0.26458 0,0.14552 0.17859,0.26458 0.39688,0.26458 0.21828,0 0.39687,0.20312 0.39687,0.45165 0,0.24852 0.44338,0.90626 0.98547,1.46141 0.90137,0.92309 1.00449,1.18434 1.20509,3.05408 0.27494,2.56249 0.27431,2.67878 -0.0367,5.08703 -0.42535,3.29414 -1.1038,5.26718 -2.12958,6.19549 -0.30451,0.27559 -0.55346,0.73447 -0.55346,1.01957 0,0.4706 -1.97341,2.53775 -2.44739,2.56367 -0.38677,0.0211 -0.19187,-1.93937 0.24029,-2.41691 0.36333,-0.40147 0.39077,-0.65536 0.15917,-1.47588 -0.56729,-2.00978 -0.86248,-3.53679 -0.86248,-4.46019 0,-2.73603 -1.75627,-5.65908 -3.3998,-5.65908 -0.39381,0 -0.97433,-0.1812 -1.29036,-0.40256 -0.98319,-0.68865 -10.77138,-0.44615 -11.82666,0.293 -0.29374,0.20574 -0.75359,0.37414 -1.02165,0.37414 -0.26807,0 -1.07117,0.25077 -1.78438,0.55759 -1.0609,0.45638 -1.44282,0.81697 -2.09962,1.98076 -0.44156,0.78238 -0.80303,1.69196 -0.80357,2.02158 -5.5e-4,0.32963 -0.23866,0.98908 -0.52916,1.46554 -0.65592,1.0758 -0.66109,1.02742 0.12919,1.22577 0.78635,0.19736 0.85948,0.4879 1.02164,4.0597 0.11622,2.55992 0.0941,2.71198 -0.39584,2.71198 -0.28551,0 -1.10788,-0.61394 -1.82728,-1.36426 -0.7194,-0.75032 -1.31157,-1.61352 -1.3162,-1.91823 -0.005,-0.3047 -0.18323,-0.78517 -0.39688,-1.06764 -0.21365,-0.28248 -0.3886,-0.89281 -0.3886,-1.3565 0,-0.46369 -0.17757,-0.9907 -0.39481,-1.17099 -0.21723,-0.18029 -0.51959,-0.82011 -0.67179,-1.42162 -0.15221,-0.60151 -0.51042,-1.52655 -0.79582,-2.05569 -0.66192,-1.22717 -0.65275,-1.67853 0.0548,-2.67219 0.50642,-0.7112 0.54058,-0.93221 0.28732,-1.88102 -0.24306,-0.91065 -0.20972,-1.22755 0.21962,-2.06912 0.27878,-0.54646 0.50695,-1.24094 0.50695,-1.54358 0,-0.86397 0.99238,-2.58927 1.60042,-2.78226 0.3031,-0.0962 1.12907,-0.67029 1.83503,-1.27589 4.32515,-3.71027 6.90844,-4.75104 11.79876,-4.7532 z m 25.64391,1.93219 c -0.55744,0 -0.49352,0.59964 0.15142,1.41955 0.69328,0.88142 1.24505,0.91827 0.67282,0.045 -0.23501,-0.35868 -0.42736,-0.83494 -0.42736,-1.05834 0,-0.2234 -0.17859,-0.40617 -0.39688,-0.40617 z m -16.65427,1.12861 c -0.4118,-0.006 -0.67593,0.27637 -0.67593,0.79427 0,1.35836 1.64904,1.73337 1.80195,0.40979 0.0586,-0.50704 -0.0796,-0.79608 -0.48369,-1.01234 -0.23718,-0.12694 -0.45516,-0.18905 -0.64233,-0.19172 z m 0.2744,0.50591 c 0.14597,0.0107 0.28883,0.082 0.38189,0.23255 0.12129,0.19616 0.16161,0.45183 0.0899,0.56792 -0.21935,0.35493 -0.82738,0.23497 -0.9927,-0.19585 -0.13771,-0.35885 0.19976,-0.62814 0.5209,-0.60462 z m 18.38285,4.3186 -0.009,0.81597 c -0.005,0.44869 0.0699,0.89519 0.16691,0.99219 0.63648,0.63648 0.78801,-0.15335 0.22015,-1.1467 z m 0.64286,4.35167 c -0.14552,-0.008 -0.30575,0.18464 -0.35605,0.42737 -0.0571,0.27585 0.042,0.39666 0.26458,0.32246 0.41197,-0.13732 0.48419,-0.72903 0.0915,-0.74983 z m -22.86476,3.28662 c -0.18162,0.008 -0.2036,0.0329 -0.0217,0.0713 0.3638,0.0769 1.14876,0.66579 1.74408,1.30844 0.59532,0.64264 1.2204,1.16841 1.38906,1.16841 0.4445,0 0.37837,-1.72748 -0.0806,-2.1084 -0.21285,-0.17665 -1.13559,-0.36304 -2.05053,-0.41445 -0.45748,-0.0256 -0.79868,-0.0337 -0.9803,-0.0253 z m 22.46788,0.96067 c -0.14552,0 -0.26458,0.17858 -0.26458,0.39687 0,0.21829 0.11906,0.39688 0.26458,0.39688 0.14552,0 0.26459,-0.17859 0.26459,-0.39688 0,-0.21829 -0.11907,-0.39687 -0.26459,-0.39687 z m -0.25425,2.68201 c -0.26535,-0.004 -0.49453,0.41121 -0.66507,1.22059 -0.23459,1.11331 0.23448,1.13417 0.80253,0.0357 0.30641,-0.59252 0.34594,-0.90463 0.13953,-1.11104 -0.0956,-0.0956 -0.18853,-0.1438 -0.27699,-0.14521 z m -33.76021,5.25549 c -0.23029,0 -0.38137,0.26193 -0.38137,0.66146 0,0.74319 0.30665,0.85104 0.78393,0.27595 0.36783,-0.4432 0.1557,-0.93741 -0.40256,-0.93741 z m 28.26649,6.59494 c -0.1055,-0.0109 -0.23945,0.12303 -0.29765,0.29766 -0.0582,0.17466 0.0367,0.26956 0.21135,0.21136 0.34111,-0.11369 0.40266,-0.47632 0.0863,-0.50902 z m -15.14481,2.46394 c 0.27949,0.0112 0.52297,0.24676 0.37621,0.48421 -0.0837,0.13546 -0.25717,0.24649 -0.38551,0.24649 -0.37054,0 -0.56462,-0.47599 -0.26872,-0.65887 0.0881,-0.0544 0.18486,-0.0756 0.27802,-0.0718 z m 1.72341,4.71495 c 0.50899,0.009 1.02624,0.14629 1.40095,0.40877 0.36228,0.25373 0.92766,0.37725 1.40663,0.30695 0.63475,-0.0932 0.85667,0.004 1.06867,0.46923 0.28563,0.62689 3.22769,2.50372 3.92482,2.50372 0.2297,0 0.81275,0.29132 1.29553,0.64751 0.48277,0.35617 1.2498,0.72662 1.70481,0.8232 0.455,0.0966 1.00593,0.32492 1.22421,0.50746 0.21828,0.18254 0.69454,0.40235 1.05834,0.48835 0.3638,0.086 0.89631,0.32798 1.18339,0.53795 0.46661,0.34128 0.48387,0.45326 0.16226,1.05419 -0.21328,0.39853 -0.29391,1.00162 -0.19792,1.48157 l 0.16175,0.80977 h -7.53391 c -4.84628,0 -7.53391,-0.0944 -7.53391,-0.26458 0,-0.14553 0.5389,-0.26459 1.19735,-0.26459 1.06239,0 1.22826,-0.0819 1.47433,-0.7276 0.58249,-1.52851 0.57784,-2.12879 -0.0233,-2.97295 -0.36897,-0.51818 -0.66636,-1.46967 -0.80254,-2.5678 -0.27181,-2.19167 -0.91478,-2.99549 -2.00091,-2.50062 -0.86695,0.39501 -1.22491,0.13355 -0.52141,-0.38086 0.34147,-0.24969 0.84183,-0.36874 1.35082,-0.35967 z m -0.11007,1.08986 c 0.60787,0.0738 0.98723,1.67742 0.48472,2.61638 -0.49018,0.91591 -0.86557,0.59682 -0.67799,-0.57619 0.10404,-0.65066 0.059,-1.22637 -0.11162,-1.43196 -0.20599,-0.24822 -0.19677,-0.39829 0.0326,-0.54002 0.0943,-0.0583 0.18549,-0.0788 0.27233,-0.0682 z m -1.99574,6.30298 c 0.42279,0 0.42093,0.0378 -0.0238,0.52916 -0.51403,0.56799 -1.06355,0.68431 -1.31465,0.27802 -0.18045,-0.29195 0.67383,-0.80718 1.33841,-0.80718 z m -10.09344,0.52916 c -1.00557,0 -1.25117,0.56907 -0.44752,1.03715 0.64421,0.37522 1.00698,0.34879 1.37924,-0.0997 0.47022,-0.56659 0.1017,-0.93741 -0.93172,-0.93741 z m 0.13229,0.26459 c 0.13694,0 0.32248,0.11906 0.41238,0.26458 0.0899,0.14552 -0.0222,0.26458 -0.24909,0.26458 -0.22687,0 -0.41237,-0.11906 -0.41237,-0.26458 0,-0.14552 0.11215,-0.26458 0.24908,-0.26458 z m 6.89467,0.26458 c 0.30817,0 0.48677,0.11905 0.39687,0.26458 -0.0899,0.14552 -0.26853,0.26459 -0.39687,0.26459 -0.12835,0 -0.30698,-0.11907 -0.39688,-0.26459 -0.0899,-0.14553 0.0887,-0.26458 0.39688,-0.26458 z m -1.77767,0.27233 c 0.10649,0.0151 0.21883,0.0888 0.30541,0.22893 0.0805,0.13027 -0.0316,0.30521 -0.24909,0.38861 -0.24015,0.0922 -0.39532,-5.3e-4 -0.39532,-0.23668 0,-0.26746 0.1615,-0.40593 0.339,-0.38086 z m 0.98392,1.08004 c 0.26375,0 0.52751,0.0152 0.7276,0.0455 0.40018,0.0606 0.0728,0.11058 -0.7276,0.11058 -0.80037,0 -1.12779,-0.0499 -0.72761,-0.11058 0.20009,-0.0303 0.46385,-0.0455 0.72761,-0.0455 z"
       style="fill:#c47a36;fill-opacity:0.97254902;stroke-width:1;stroke-miterlimit:4;stroke-dasharray:none"
       id="path879" />
    <path
       style="fill:#815c44;fill-opacity:0.96862745;stroke:none;stroke-width:1;stroke-miterlimit:4;stroke-dasharray:none;stroke-opacity:1"
       d="m 95.003413,155.52354 c 0.8756,-0.70852 1.71944,-1.0405 2.64472,-1.0405 0.93155,0 2.361827,-0.91737 3.055257,-1.95961 0.32105,-0.48256 1.12081,-1.0375 2.10524,-1.46081 2.02515,-0.87084 2.8774,-1.44594 4.39838,-2.96807 0.67549,-0.676 1.51001,-1.3165 1.85448,-1.42332 0.34447,-0.10682 1.1819,-0.47343 1.86096,-0.81466 l 1.23465,-0.62045 0.16984,1.00528 c 0.0934,0.5529 0.144,1.11541 0.11241,1.25002 -0.0316,0.13461 0.0337,0.45311 0.14516,0.70776 0.34847,0.79637 -0.0312,1.25677 -1.03633,1.25677 -0.90876,0 -0.93435,0.0281 -0.93435,1.02595 0,0.56425 0.15001,1.15042 0.33335,1.30258 0.18335,0.15217 1.10608,0.35863 2.05052,0.4588 1.03068,0.10933 1.84432,0.34227 2.0352,0.58268 0.1749,0.2203 0.49897,0.33109 0.72014,0.24621 0.22118,-0.0849 0.73291,-0.0537 1.13719,0.0692 0.40429,0.12293 1.24108,0.36082 1.85954,0.52861 1.12108,0.30419 1.48081,0.88427 0.72761,1.1733 -0.21828,0.0838 -0.39688,0.39415 -0.39688,0.68977 0,0.53265 -0.11076,0.53741 -12.36927,0.53159 l -12.369274,-0.006 0.661457,-0.53524 z m 21.421637,-0.63204 c 0.47022,-0.56658 0.10139,-0.93763 -0.93204,-0.93763 -1.00556,0 -1.25105,0.56906 -0.4474,1.03714 0.64421,0.37523 1.00718,0.34903 1.37944,-0.0995 z m 4.57368,0.98953 c 0.40018,-0.0606 1.05503,-0.0606 1.45521,0 0.40018,0.0606 0.0728,0.11023 -0.7276,0.11023 -0.80037,0 -1.12779,-0.0496 -0.72761,-0.11023 z m 6.01927,-0.0751 c 0,-0.14553 0.53873,-0.26458 1.19718,-0.26458 1.06239,0 1.22839,-0.0819 1.47446,-0.72761 0.5825,-1.52852 0.5778,-2.12888 -0.0233,-2.97303 -0.36897,-0.51819 -0.66638,-1.46977 -0.80256,-2.56789 -0.27181,-2.19168 -0.91492,-2.99528 -2.00105,-2.5004 -0.86695,0.39501 -1.22485,0.13358 -0.52135,-0.38083 0.68294,-0.49938 2.00273,-0.47587 2.75215,0.0491 0.36228,0.25374 0.92771,0.37705 1.40668,0.30675 0.63475,-0.0932 0.85639,0.004 1.06839,0.46954 0.28563,0.62688 3.22766,2.50357 3.92479,2.50357 0.2297,0 0.81263,0.29142 1.29541,0.64761 0.48277,0.35618 1.25004,0.72662 1.70505,0.82319 0.455,0.0966 1.00587,0.32495 1.22415,0.5075 0.21828,0.18253 0.69453,0.40223 1.05833,0.48823 0.3638,0.086 0.89634,0.32812 1.18342,0.5381 0.46661,0.34128 0.48381,0.45306 0.1622,1.05399 -0.21328,0.39853 -0.29384,1.00185 -0.19785,1.48181 l 0.16191,0.80958 H 134.552 c -4.84628,0 -7.53401,-0.0944 -7.53401,-0.26458 z m 17.8104,-0.10006 c 0.077,-0.20055 0.008,-0.49621 -0.1525,-0.65704 -0.55322,-0.55323 0.0786,-0.66208 0.78444,-0.13513 1.03705,0.77427 1.06094,1.1568 0.0722,1.1568 -0.60844,0 -0.80504,-0.10179 -0.70418,-0.36463 z M 106.63017,133.8042 c -0.7194,-0.75032 -1.31179,-1.61352 -1.31642,-1.91823 -0.005,-0.3047 -0.18322,-0.78513 -0.39687,-1.0676 -0.21365,-0.28248 -0.38846,-0.89298 -0.38846,-1.35667 0,-0.46369 -0.17774,-0.99058 -0.39498,-1.17087 -0.21723,-0.18029 -0.5195,-0.81995 -0.6717,-1.42146 -0.15221,-0.60151 -0.51025,-1.52659 -0.79565,-2.05573 -0.66192,-1.22717 -0.65263,-1.67888 0.0549,-2.67254 0.50642,-0.7112 0.54013,-0.93219 0.28687,-1.881 -0.24306,-0.91065 -0.20942,-1.22713 0.21992,-2.0687 0.27878,-0.54646 0.50688,-1.24118 0.50688,-1.54382 0,-0.86397 0.99252,-2.58927 1.60056,-2.78226 0.3031,-0.0962 1.12871,-0.67041 1.83467,-1.27601 4.32515,-3.71027 6.90842,-4.75093 11.79874,-4.75309 2.67596,-10e-4 3.20268,0.0866 6.05639,1.00902 2.7736,0.89656 3.41541,1.22707 5.69987,2.93528 2.34904,1.7565 3.30117,2.7504 2.6348,2.7504 -0.14095,0 -0.25628,0.11906 -0.25628,0.26458 0,0.14552 0.17859,0.26458 0.39687,0.26458 0.21829,0 0.39688,0.20334 0.39688,0.45187 0,0.24852 0.44353,0.90608 0.98562,1.46123 0.90137,0.92309 1.00437,1.18413 1.20498,3.05387 0.27494,2.56249 0.2741,2.67895 -0.0369,5.0872 -0.42536,3.29414 -1.10345,5.26722 -2.12923,6.19553 -0.30451,0.27559 -0.55367,0.73433 -0.55367,1.01943 0,0.4706 -1.97341,2.53786 -2.44739,2.56377 -0.38677,0.0211 -0.19174,-1.93926 0.24042,-2.4168 0.36333,-0.40147 0.39072,-0.65552 0.15912,-1.47604 -0.56729,-2.00979 -0.86256,-3.5365 -0.86256,-4.4599 0,-2.73603 -1.75603,-5.65932 -3.39956,-5.65932 -0.39382,0 -0.97461,-0.18111 -1.29064,-0.40247 -0.98319,-0.68865 -10.77152,-0.44618 -11.8268,0.29297 -0.29374,0.20574 -0.75341,0.37408 -1.02147,0.37408 -0.26807,0 -1.07093,0.25103 -1.78414,0.55785 -1.0609,0.45638 -1.44277,0.81658 -2.09957,1.98036 -0.44156,0.78239 -0.80327,1.69222 -0.80381,2.02184 -5.5e-4,0.32963 -0.23867,0.98916 -0.52917,1.46562 -0.65592,1.0758 -0.66103,1.02737 0.12925,1.22572 0.78635,0.19736 0.85943,0.48775 1.02159,4.05955 0.11622,2.55992 0.094,2.71199 -0.39599,2.71199 -0.28551,0 -1.10771,-0.61391 -1.82711,-1.36423 z m 22.45421,-21.70288 c 0.0586,-0.50704 -0.0796,-0.7963 -0.4837,-1.01256 -0.75897,-0.4062 -1.31809,-0.15049 -1.31809,0.60281 0,1.35836 1.64888,1.73333 1.80179,0.40975 z"
       id="path877-3-2" />
  </g>
</svg>
