<?xml version="1.0" encoding="UTF-8" standalone="no"?>
<svg
   xmlns:dc="http://purl.org/dc/elements/1.1/"
   xmlns:cc="http://creativecommons.org/ns#"
   xmlns:rdf="http://www.w3.org/1999/02/22-rdf-syntax-ns#"
   xmlns:svg="http://www.w3.org/2000/svg"
   xmlns="http://www.w3.org/2000/svg"
   xmlns:sodipodi="http://sodipodi.sourceforge.net/DTD/sodipodi-0.dtd"
   xmlns:inkscape="http://www.inkscape.org/namespaces/inkscape"
   inkscape:version="1.0 (4035a4fb49, 2020-05-01)"
   sodipodi:docname="deepfates.svg"
   id="svg8"
   version="1.1"
   viewBox="0 0 66.145836 66.145836"
   height="66.145836mm"
   width="66.145836mm">
  <defs
     id="defs2" />
  <sodipodi:namedview
     inkscape:window-maximized="1"
     inkscape:window-y="25"
     inkscape:window-x="0"
     inkscape:window-height="1026"
     inkscape:window-width="1920"
     showgrid="false"
     inkscape:document-rotation="0"
     inkscape:current-layer="layer1"
     inkscape:document-units="mm"
     inkscape:cy="101.74006"
     inkscape:cx="76.097698"
     inkscape:zoom="1.9401724"
     inkscape:pageshadow="2"
     inkscape:pageopacity="0.0"
     borderopacity="1.0"
     bordercolor="#666666"
     pagecolor="#ffffff"
     id="base" />
  <metadata
     id="metadata5">
    <rdf:RDF>
      <cc:Work
         rdf:about="">
        <dc:format>image/svg+xml</dc:format>
        <dc:type
           rdf:resource="http://purl.org/dc/dcmitype/StillImage" />
      </cc:Work>
    </rdf:RDF>
  </metadata>
  <g
     transform="translate(-86.007584,-89.924706)"
     id="layer1"
     inkscape:groupmode="layer"
     inkscape:label="Layer 1">
    <path
       style="fill:#ffffff;stroke-width:1;stroke-miterlimit:4;stroke-dasharray:none;fill-opacity:1"
       d="m 94.737369,155.54411 c 0.355909,-0.66502 1.614868,-1.32565 2.526281,-1.32565 0.384456,0 1.001738,-0.23813 1.371737,-0.52917 0.37,-0.29104 0.816153,-0.52916 0.991451,-0.52916 0.175298,0 0.452852,-0.29438 0.616782,-0.65417 0.19995,-0.43885 1.0551,-1.02666 2.5982,-1.78593 2.24267,-1.1035 4.8616,-3.11804 4.8616,-3.73965 0,-0.17044 -0.68461,-0.63546 -1.52136,-1.03338 -1.63146,-0.77587 -2.4154,-1.27722 -4.75267,-3.03948 -0.82026,-0.61846 -1.649165,-1.12448 -1.842011,-1.12448 -0.192845,0 -0.350628,-0.15735 -0.350628,-0.34966 0,-0.19232 -0.640655,-1.15363 -1.423679,-2.13625 -0.783023,-0.98261 -1.687614,-2.29975 -2.010202,-2.92696 -0.322587,-0.62721 -0.932088,-1.39587 -1.354446,-1.70814 -0.577171,-0.42672 -0.767923,-0.78423 -0.767923,-1.43924 0,-0.47932 -0.303411,-1.87474 -0.674247,-3.10093 -1.077301,-3.56217 -1.24025,-4.67613 -1.196932,-8.18257 0.04069,-3.2936 0.778377,-7.16967 1.712073,-8.99583 1.522232,-2.97725 4.224247,-6.71682 6.035208,-8.35269 0.624447,-0.56407 1.443757,-1.48467 1.820697,-2.04578 0.37694,-0.56111 1.56757,-1.60249 2.64584,-2.31418 1.07827,-0.711684 2.28889,-1.545633 2.69027,-1.853218 0.40138,-0.307584 1.17529,-0.676122 1.71979,-0.818972 0.54451,-0.14285 2.1211,-0.6336 3.50355,-1.090554 2.45826,-0.812551 2.62412,-0.830979 7.54063,-0.837791 4.52277,-0.0063 5.22615,0.0546 7.01146,0.606684 3.91281,1.210001 7.34026,2.989711 9.5919,4.980611 0.54613,0.48289 1.10471,0.87797 1.24131,0.87797 0.1366,0 0.8131,0.74414 1.50334,1.65365 0.69024,0.9095 1.61994,2.08901 2.06599,2.62112 0.44605,0.53211 1.22772,1.63251 1.73704,2.44532 0.94166,1.50277 1.16393,1.68871 1.45521,1.21741 0.25526,-0.41303 0.92604,-0.31046 0.92604,0.1416 0,0.2234 0.19652,0.70611 0.43671,1.07269 0.41617,0.63515 0.4111,0.6732 -0.10783,0.8089 -0.79302,0.20738 -0.8733,0.94201 -0.30669,2.80637 0.27627,0.909 0.57807,2.38466 0.67068,3.27924 0.20787,2.0078 0.48926,2.53906 0.9952,1.87891 0.1953,-0.25483 0.29822,-0.76085 0.22871,-1.12448 -0.0695,-0.36363 -0.006,-0.66115 0.14125,-0.66115 0.34932,0 0.57112,2.11839 0.28214,2.69459 -0.12293,0.24509 -0.2235,1.24775 -0.2235,2.22812 0,1.30291 -0.12043,1.91557 -0.44759,2.27708 -0.42055,0.4647 -0.41991,0.54144 0.0106,1.27024 0.42514,0.7197 0.42735,0.83529 0.0307,1.60239 -0.306,0.59173 -0.56747,0.79014 -0.91986,0.69799 -0.54337,-0.1421 -1.08027,0.81538 -2.63984,4.70772 -0.46646,1.16417 -1.02571,2.31638 -1.24279,2.56047 -0.22362,0.25145 -0.40287,0.98509 -0.41356,1.69267 -0.0166,1.09755 -0.10318,1.28068 -0.71465,1.51149 -0.38267,0.14444 -1.02612,0.72219 -1.42987,1.28389 -0.40376,0.5617 -0.87019,1.02127 -1.03652,1.02127 -0.16633,0 -0.74611,0.43326 -1.28842,0.9628 -0.54229,0.52954 -1.91653,1.52282 -3.05386,2.20728 -3.18635,1.91761 -3.03344,2.28832 1.90089,4.60843 1.45521,0.68423 3.12208,1.4765 3.70416,1.76059 0.58209,0.2841 1.15696,0.51621 1.2775,0.5158 0.12055,-5.3e-4 1.40047,0.7252 2.84428,1.61245 1.83891,1.13006 2.6251,1.76397 2.6251,2.11667 0,0.76503 -1.25545,0.66061 -1.89935,-0.15798 -0.28617,-0.3638 -0.63073,-0.66145 -0.76569,-0.66145 -0.40794,0 -0.27568,0.58012 0.21764,0.9546 0.38606,0.29306 -3.68335,0.35288 -24.48326,0.3599 -24.822344,0.008 -24.944895,0.006 -24.664559,-0.51802 z m 25.457071,-15.11793 c 0.53991,-0.27237 1.28405,-0.49522 1.65365,-0.49522 0.64629,0 0.672,-0.0618 0.672,-1.61666 0,-1.56577 0.0375,-1.65362 1.19062,-2.79045 0.91306,-0.90014 1.19203,-1.37137 1.19667,-2.02136 0.003,-0.46616 0.21856,-1.68101 0.47831,-2.69966 0.45207,-1.77288 0.50838,-1.85563 1.31687,-1.93499 0.76948,-0.0755 0.84461,-0.16363 0.84461,-0.99043 0,-0.7522 -0.26782,-1.17954 -1.56477,-2.49678 -0.86062,-0.87409 -1.64203,-1.58926 -1.73646,-1.58926 -0.0944,0 -0.90834,-0.34906 -1.80867,-0.7757 -2.81967,-1.33614 -3.64935,-1.60583 -4.91043,-1.59612 -1.92456,0.0148 -4.1627,0.66171 -5.37569,1.55376 -0.61182,0.44993 -1.3866,0.81806 -1.72173,0.81806 -0.92907,0 -1.66767,0.90258 -1.66767,2.03793 0,0.74469 0.20405,1.19012 0.85094,1.85754 0.46802,0.48287 1.03572,1.37815 1.26155,1.98951 0.38903,1.05315 0.55069,1.19283 2.38543,2.06127 0.41613,0.19697 0.49054,1.50485 0.14434,2.53696 -0.14851,0.44275 0.059,0.80606 0.98223,1.71979 0.87277,0.86378 1.21433,1.43619 1.34279,2.25026 0.12976,0.8224 0.43767,1.33156 1.24787,2.06353 1.16361,1.05125 1.35381,1.05823 3.21754,0.11802 z m 26.596,-22.63102 c -0.30239,-0.51112 -0.48391,-1.94129 -0.24639,-1.94129 0.42134,0 0.96382,1.57639 0.65035,1.88986 -0.15011,0.15011 -0.33189,0.17325 -0.40396,0.0514 z"
       id="path881" />
    <path
       style="fill:#090909;stroke-width:1;stroke-miterlimit:4;stroke-dasharray:none;fill-opacity:1"
       d="m 94.737369,155.54411 c 0.355909,-0.66502 1.614868,-1.32565 2.526281,-1.32565 0.384456,0 1.001738,-0.23813 1.371737,-0.52917 0.37,-0.29104 0.816153,-0.52916 0.991451,-0.52916 0.175298,0 0.452852,-0.29438 0.616782,-0.65417 0.20024,-0.43947 1.05434,-1.02559 2.60249,-1.78593 2.02817,-0.99609 5.12189,-3.34839 5.12189,-3.8944 0,-0.10779 -0.56555,-0.50419 -1.25677,-0.88087 -4.66437,-2.54186 -7.655547,-5.26701 -10.475815,-9.54413 -2.003727,-3.03879 -2.819497,-4.73291 -2.819497,-5.85528 0,-0.61853 -0.152372,-1.08325 -0.984193,-3.00169 -0.523195,-1.20665 -0.504428,-9.24574 0.02441,-10.45812 0.200275,-0.45914 0.509747,-1.36354 0.687717,-2.0098 0.510566,-1.854 0.781142,-2.44051 1.049401,-2.27472 0.147771,0.0913 0.0907,0.53325 -0.140243,1.08598 -0.404319,0.96767 -0.47548,1.39544 -0.855375,5.14187 -0.239008,2.35705 -0.203952,5.22582 0.09362,7.66142 0.176215,1.44229 1.247115,4.70025 1.87362,5.70004 0.182377,0.29104 0.579835,1.16371 0.88324,1.93925 0.303405,0.77555 0.909511,1.8554 1.346903,2.39968 1.453944,1.80924 4.375172,4.67606 5.696752,5.59065 0.71739,0.49646 1.54247,1.09806 1.83351,1.33687 0.29104,0.23882 0.92139,0.56541 1.40077,0.72576 0.47938,0.16035 1.21213,0.53403 1.62834,0.8304 0.94943,0.67605 1.3557,0.6748 2.69473,-0.008 0.8787,-0.44828 1.21237,-0.85554 1.84612,-2.25325 0.75118,-1.65668 0.76087,-1.73084 0.3349,-2.56168 -0.24128,-0.47058 -0.70936,-1.18001 -1.04018,-1.57649 -0.33082,-0.39648 -0.74002,-1.14063 -0.90933,-1.65365 -0.20063,-0.60788 -0.47374,-0.93275 -0.78418,-0.93275 -0.99726,0 -2.55303,-0.89735 -3.77245,-2.17589 -0.69653,-0.73031 -1.27553,-1.4027 -1.28667,-1.4942 -0.0929,-0.76365 -0.26442,-1.20523 -0.62121,-1.59947 -0.22928,-0.25336 -0.41688,-0.86032 -0.41688,-1.3488 0,-0.54503 -0.22006,-1.1224 -0.5696,-1.49447 -0.34806,-0.37049 -0.56052,-0.92583 -0.54625,-1.42781 0.0129,-0.45182 -0.20664,-1.19868 -0.48774,-1.6597 -0.65364,-1.07197 -0.6503,-2.1412 0.01,-3.2096 0.43709,-0.70722 0.47466,-0.97465 0.22854,-1.6267 -0.24749,-0.65567 -0.17849,-1.1172 0.43192,-2.88903 1.02128,-2.96446 1.33994,-3.49071 2.45994,-4.06233 0.5427,-0.27698 1.22393,-0.76587 1.51383,-1.08642 1.06535,-1.17796 4.81878,-3.40344 6.76787,-4.01281 1.65111,-0.51621 2.51554,-0.6118 5.40503,-0.5977 3.21453,0.0157 3.61775,0.0774 6.16253,0.94398 1.96489,0.66907 3.28176,1.32656 4.73018,2.36168 3.17422,2.26847 3.75697,2.84184 4.10476,4.0387 0.17579,0.60497 0.71304,1.51319 1.19389,2.01827 0.74091,0.77826 0.87427,1.1125 0.87427,2.19131 0,0.70014 0.17119,1.68271 0.38043,2.18348 0.28881,0.69122 0.31454,1.11928 0.10687,1.77744 -0.15045,0.47682 -0.37168,1.70038 -0.49161,2.71903 -0.38875,3.30186 -0.98942,5.13096 -1.94561,5.92453 -0.21853,0.18136 -0.47396,0.6787 -0.56764,1.10521 -0.0937,0.42651 -0.26166,0.77547 -0.37329,0.77547 -0.11164,0 -0.6379,0.42239 -1.16948,0.93866 -0.95598,0.92843 -3.52531,2.00207 -3.24275,1.35504 0.0743,-0.17013 0.28777,-0.82836 0.4744,-1.46273 0.18662,-0.63437 0.62082,-1.45715 0.96488,-1.8284 l 0.62557,-0.67499 -0.43042,-2.53723 c -0.84078,-4.95629 -0.93541,-5.38431 -1.40111,-6.33672 -0.45808,-0.93685 -1.05715,-1.34089 -3.24899,-2.19124 -0.68218,-0.26466 -2.22661,-0.34512 -5.86474,-0.30555 -4.40936,0.048 -5.04701,0.11176 -5.94921,0.59531 -0.55578,0.29788 -1.14264,0.5416 -1.30415,0.5416 -0.1615,0 -0.51305,0.24244 -0.78122,0.53877 -0.26817,0.29632 -0.99081,0.76137 -1.60588,1.03344 -1.25539,0.55532 -1.71023,1.21761 -1.9642,2.86009 -0.16181,1.0465 -0.11425,1.17055 0.68164,1.7776 0.62388,0.47586 0.89102,0.92354 0.98643,1.65311 0.072,0.55029 0.21722,1.2663 0.32279,1.59113 0.15678,0.48237 0.0623,0.63991 -0.5159,0.85972 -0.59679,0.2269 -0.69485,0.40409 -0.62494,1.1292 0.0691,0.71669 0.20421,0.87402 0.81052,0.94378 0.56865,0.0654 0.72761,0.22261 0.72761,0.71946 0,0.65607 0.92768,2.65672 1.3541,2.92026 0.13253,0.0819 0.48022,0.61792 0.77266,1.19114 0.59446,1.16524 4.01121,4.03656 5.14065,4.32003 0.38923,0.0977 0.65959,0.32206 0.60081,0.49859 -0.19526,0.58647 -1.0133,0.50753 -2.08415,-0.20112 -1.58222,-1.04706 -1.89819,-0.85884 -2.22605,1.326 -0.15314,1.02053 -0.36729,1.99928 -0.47588,2.175 -0.10861,0.17572 -0.36201,1.24423 -0.56313,2.37446 -0.33003,1.85464 -0.32384,2.08721 0.0634,2.38569 0.23601,0.1819 0.71903,0.33073 1.07339,0.33073 0.35435,0 1.69337,0.2463 2.9756,0.54733 1.75368,0.41172 2.46221,0.47727 2.85962,0.26458 0.29058,-0.15551 1.06746,-0.28274 1.72641,-0.28274 0.65895,0 1.87232,-0.25226 2.69636,-0.56057 l 1.49827,-0.56058 -0.15479,-1.30694 c -0.0851,-0.71882 -0.46191,-2.19676 -0.83728,-3.28432 -0.38537,-1.11651 -0.64917,-2.40157 -0.60595,-2.95176 0.0989,-1.25873 -0.53564,-1.43655 -1.68251,-0.47152 -0.45378,0.38183 -1.01617,0.65743 -1.24975,0.61244 -0.53097,-0.10225 -0.73967,-1.00175 -0.23242,-1.00175 0.2032,0 1.1942,-0.52973 2.20222,-1.17718 1.38272,-0.88812 2.11964,-1.60278 3.0011,-2.91041 0.64258,-0.95329 1.26766,-1.73325 1.38906,-1.73325 0.33199,0 0.26653,0.36746 -0.16774,0.94162 -0.68348,0.90364 -0.33147,5.61695 0.52271,6.99906 0.30311,0.49043 1.24975,0.26259 2.13372,-0.51354 0.48544,-0.42623 1.69919,-1.25186 2.69722,-1.83474 1.72436,-1.00708 2.91055,-2.12235 4.6921,-4.41158 1.30809,-1.68084 2.77639,-3.93798 2.77728,-4.26937 5.3e-4,-0.17074 0.29179,-0.65619 0.64738,-1.07879 0.78066,-0.92776 1.904,-3.8236 2.2724,-5.85796 0.14781,-0.81624 0.3817,-3.03188 0.51976,-4.92365 0.32599,-4.46713 -0.15285,-6.94431 -2.12252,-10.98021 -2.5874,-5.30169 -3.19125,-6.10336 -7.3738,-9.78959 -3.15081,-2.776918 -8.72207,-4.950728 -13.38275,-5.221722 -1.64707,-0.09577 -2.44284,-0.22963 -2.11667,-0.35606 0.77202,-0.299251 5.68835,0.01531 6.60809,0.422804 0.43656,0.193421 1.15093,0.434382 1.5875,0.535469 1.11412,0.257978 4.82023,1.925916 6.08541,2.738744 1.71721,1.103235 4.56935,3.720275 6.03957,5.541735 2.685,3.32642 3.54365,4.86599 4.84046,8.67897 0.97172,2.85713 0.97741,2.89939 0.99285,7.37152 0.0121,3.50168 -0.0875,4.87883 -0.44981,6.21771 -1.11598,4.12448 -2.65046,7.61399 -4.63918,10.54983 -1.03163,1.52294 -4.8976,5.10116 -6.94412,6.42726 -0.97421,0.63127 -1.2846,1.0086 -1.41901,1.7251 -0.10336,0.55093 -0.0514,1.0625 0.13019,1.28127 0.16624,0.2003 1.69137,1.03205 3.38919,1.84835 1.69782,0.81629 3.5632,1.71528 4.14528,1.99775 0.58208,0.28247 1.15696,0.51325 1.2775,0.51284 0.12054,-5.3e-4 1.40047,0.7252 2.84427,1.61245 1.83892,1.13006 2.62511,1.76397 2.62511,2.11667 0,0.7171 -1.48583,0.71149 -1.7137,-0.006 -0.089,-0.28048 -0.59177,-0.76362 -1.11723,-1.07364 -1.07309,-0.63315 -1.39115,-0.43845 -1.39836,0.85599 l -0.004,0.72761 h -23.82181 c -23.698507,0 -23.820345,-0.003 -23.540067,-0.52643 z m 26.310371,-0.55962 c -0.23088,-0.37358 -0.64432,-0.27623 -0.64432,0.15171 0,0.23603 0.1552,0.32901 0.39536,0.23686 0.21744,-0.0834 0.32948,-0.2583 0.24896,-0.38857 z m 1.86922,-0.23686 c 0.0899,-0.14553 -0.0887,-0.26459 -0.39687,-0.26459 -0.30822,0 -0.48682,0.11906 -0.39688,0.26459 0.0899,0.14552 0.26853,0.26458 0.39688,0.26458 0.12834,0 0.30693,-0.11906 0.39687,-0.26458 z m -6.87917,-0.26459 c -0.0899,-0.14552 -0.27555,-0.26458 -0.41249,-0.26458 -0.13693,0 -0.24896,0.11906 -0.24896,0.26458 0,0.14552 0.18562,0.26459 0.41249,0.26459 0.22687,0 0.3389,-0.11907 0.24896,-0.26459 z m 9.525,-0.52916 c 0.44471,-0.49139 0.44639,-0.52917 0.0236,-0.52917 -0.66458,0 -1.51876,0.51507 -1.33832,0.80702 0.2511,0.40629 0.80068,0.29014 1.31471,-0.27785 z m 2.50424,-4.21594 c 0.57429,-1.07309 -0.003,-3.01418 -0.75715,-2.54781 -0.22932,0.14173 -0.23829,0.2918 -0.0323,0.54002 0.17063,0.20559 0.21537,0.781 0.11133,1.43166 -0.18758,1.17301 0.18792,1.49204 0.67811,0.57613 z m -1.72179,-7.93662 c 0.19568,-0.3166 -0.30205,-0.63029 -0.65447,-0.41249 -0.2959,0.18288 -0.10164,0.65879 0.2689,0.65879 0.12834,0 0.30185,-0.11083 0.38557,-0.2463 z m 2.35948,-29.5981 c 0.0717,-0.11609 0.0313,-0.37156 -0.09,-0.56772 -0.29777,-0.4818 -1.10282,-0.15006 -0.90252,0.3719 0.16532,0.43082 0.77314,0.55075 0.99249,0.19582 z m 12.1113,26.94722 c 0.0582,-0.17463 0.19216,-0.30857 0.29766,-0.29766 0.31636,0.0327 0.2551,0.39563 -0.086,0.50932 -0.17462,0.0582 -0.26987,-0.037 -0.21167,-0.21166 z m -28.3501,-6.23094 c 0,-0.39953 0.15097,-0.66146 0.38126,-0.66146 0.55826,0 0.7707,0.49443 0.40287,0.93763 -0.47728,0.57509 -0.78413,0.46702 -0.78413,-0.27617 z m 33.47664,-4.69635 c 0.22739,-1.07918 0.55915,-1.45807 0.94171,-1.07551 0.20641,0.20641 0.16732,0.51873 -0.13909,1.11125 -0.56806,1.09851 -1.03721,1.07761 -0.80262,-0.0357 z m -19.82653,-3.48355 c -0.59532,-0.64265 -1.38006,-1.23134 -1.74386,-1.30821 -0.3638,-0.0769 0.0871,-0.0977 1.00207,-0.0464 0.91494,0.0514 1.83768,0.23791 2.05052,0.41456 0.45899,0.38092 0.5248,2.10846 0.0803,2.10846 -0.16866,0 -0.79374,-0.5258 -1.38906,-1.16844 z m 20.48114,-0.0222 c 0,-0.21829 0.11906,-0.39688 0.26458,-0.39688 0.14552,0 0.26459,0.17859 0.26459,0.39688 0,0.21828 -0.11907,0.39687 -0.26459,0.39687 -0.14552,0 -0.26458,-0.17859 -0.26458,-0.39687 z m 0.30546,-4.21684 c 0.0503,-0.24273 0.21048,-0.43503 0.356,-0.42735 0.39272,0.0208 0.32057,0.61268 -0.0914,0.75 -0.22254,0.0742 -0.32173,-0.0468 -0.26458,-0.32265 z m -0.12907,-2.97101 c -0.097,-0.097 -0.17217,-0.5435 -0.16701,-0.99219 l 0.009,-0.8158 0.37812,0.66146 c 0.56786,0.99335 0.416,1.78301 -0.22048,1.14653 z m -2.00927,-6.34159 c -0.64494,-0.81991 -0.70894,-1.41952 -0.1515,-1.41952 0.21829,0 0.39688,0.18278 0.39688,0.40618 0,0.2234 0.19229,0.69965 0.4273,1.05833 0.57222,0.87331 0.0206,0.83642 -0.67268,-0.045 z m -42.60876,-9.55546 c 0.009,-0.21717 2.03198,-1.55199 3.30791,-2.182814 0.4415,-0.218281 1.08903,-0.664765 1.43895,-0.992187 0.34993,-0.327422 0.85929,-0.595313 1.13193,-0.595313 0.65076,0 2.85576,-0.682443 4.77977,-1.479329 1.76163,-0.729632 2.12134,-0.771719 2.51737,-0.294539 0.22191,0.267391 0.0108,0.415209 -0.9598,0.671975 -0.68435,0.181047 -1.60992,0.443507 -2.05682,0.583243 -0.44689,0.139737 -1.04921,0.254067 -1.33849,0.254067 -0.28928,0 -0.75707,0.174807 -1.03955,0.38846 -0.28247,0.213654 -0.6734,0.392247 -0.86873,0.396875 -0.19533,0.0046 -0.65787,0.24654 -1.02787,0.537582 -0.37,0.291041 -0.84625,0.529166 -1.05833,0.529166 -0.21209,0 -0.68834,0.238125 -1.05834,0.529167 -0.37,0.291037 -0.87404,0.529167 -1.12009,0.529167 -0.24605,0 -0.727,0.29766 -1.06877,0.66146 -0.57769,0.61491 -1.59815,0.91413 -1.57914,0.46302 z m 14.48066,-5.544943 c 0.32912,-0.06329 0.80537,-0.06088 1.05833,0.0053 0.25297,0.06622 -0.0163,0.118003 -0.59839,0.115067 -0.58209,-0.0029 -0.78906,-0.05712 -0.45994,-0.120406 z"
       id="path879" />
    <path
       style="fill:#56b0ca;stroke-width:1;stroke-miterlimit:4;stroke-dasharray:none;fill-opacity:1"
       d="m 95.003418,155.52354 c 0.875596,-0.70851 1.719431,-1.0405 2.644711,-1.0405 0.931551,0 2.361831,-0.91736 3.055261,-1.95961 0.32105,-0.48256 1.12081,-1.0375 2.10524,-1.46081 2.02515,-0.87083 2.8774,-1.44593 4.39838,-2.96806 0.67549,-0.676 1.51001,-1.3165 1.85448,-1.42333 0.34447,-0.10682 1.1819,-0.47342 1.86096,-0.81466 l 1.23465,-0.62045 0.16984,1.00529 c 0.0934,0.5529 0.144,1.11541 0.11241,1.25002 -0.0316,0.1346 0.0337,0.4531 0.14516,0.70776 0.34847,0.79636 -0.0312,1.25677 -1.03633,1.25677 -0.90876,0 -0.93435,0.0281 -0.93435,1.02594 0,0.56426 0.15001,1.15043 0.33335,1.30258 0.18335,0.15217 1.10608,0.35863 2.05052,0.45881 1.03068,0.10932 1.84432,0.34227 2.0352,0.58267 0.1749,0.2203 0.49897,0.3311 0.72014,0.24622 0.22118,-0.0849 0.73291,-0.0537 1.13719,0.0692 0.40429,0.12294 1.24108,0.36082 1.85954,0.52862 1.12108,0.30419 1.48081,0.88426 0.72761,1.1733 -0.21828,0.0838 -0.39688,0.39415 -0.39688,0.68976 0,0.53266 -0.11076,0.53742 -12.36927,0.53159 l -12.369271,-0.006 0.661459,-0.53523 z m 21.421632,-0.63203 c 0.47022,-0.56659 0.10139,-0.93763 -0.93204,-0.93763 -1.00556,0 -1.25105,0.56906 -0.4474,1.03714 0.64421,0.37522 1.00718,0.34903 1.37944,-0.0995 z m 4.57368,0.98952 c 0.40018,-0.0606 1.05503,-0.0606 1.45521,0 0.40018,0.0606 0.0728,0.11023 -0.7276,0.11023 -0.80037,0 -1.12779,-0.0496 -0.72761,-0.11023 z m 6.01927,-0.0751 c 0,-0.14552 0.53873,-0.26458 1.19718,-0.26458 1.06239,0 1.22839,-0.0819 1.47446,-0.72761 0.5825,-1.52851 0.5778,-2.12887 -0.0233,-2.97303 -0.36897,-0.51818 -0.66638,-1.46976 -0.80256,-2.56789 -0.27181,-2.19167 -0.91492,-2.99527 -2.00105,-2.5004 -0.86695,0.39501 -1.22485,0.13358 -0.52135,-0.38083 0.68294,-0.49938 2.00273,-0.47586 2.75215,0.0491 0.36228,0.25374 0.92771,0.37705 1.40668,0.30675 0.63475,-0.0932 0.85639,0.004 1.06839,0.46953 0.28563,0.62689 3.22766,2.50358 3.92479,2.50358 0.2297,0 0.81263,0.29142 1.29541,0.6476 0.48277,0.35618 1.25004,0.72662 1.70505,0.8232 0.455,0.0966 1.00587,0.32495 1.22415,0.50749 0.21828,0.18254 0.69453,0.40224 1.05833,0.48823 0.3638,0.086 0.89634,0.32813 1.18342,0.5381 0.46661,0.34128 0.48381,0.45307 0.1622,1.054 -0.21328,0.39852 -0.29384,1.00185 -0.19785,1.4818 l 0.16191,0.80958 H 134.552 c -4.84628,0 -7.53401,-0.0944 -7.53401,-0.26458 z m 17.8104,-0.10005 c 0.077,-0.20055 0.008,-0.49622 -0.1525,-0.65705 -0.55322,-0.55323 0.0786,-0.66207 0.78444,-0.13513 1.03705,0.77428 1.06094,1.15681 0.0722,1.15681 -0.60844,0 -0.80504,-0.1018 -0.70418,-0.36463 z m -38.19823,-21.90167 c -0.7194,-0.75032 -1.31179,-1.61352 -1.31642,-1.91823 -0.005,-0.3047 -0.18322,-0.78513 -0.39687,-1.0676 -0.21365,-0.28248 -0.38846,-0.89298 -0.38846,-1.35667 0,-0.46369 -0.17774,-0.99058 -0.39498,-1.17087 -0.21723,-0.18029 -0.5195,-0.81995 -0.6717,-1.42146 -0.15221,-0.60151 -0.51025,-1.52659 -0.79565,-2.05573 -0.66192,-1.22717 -0.65263,-1.67888 0.0549,-2.67254 0.50642,-0.7112 0.54013,-0.93219 0.28687,-1.881 -0.24306,-0.91065 -0.20942,-1.22713 0.21992,-2.0687 0.27878,-0.54646 0.50688,-1.24118 0.50688,-1.54382 0,-0.86397 0.99252,-2.58928 1.60056,-2.78227 0.3031,-0.0962 1.12871,-0.6704 1.83467,-1.276 4.32515,-3.71027 6.90842,-4.75093 11.79874,-4.75309 2.67596,-0.001 3.20268,0.0866 6.05639,1.00902 2.7736,0.89656 3.41541,1.22707 5.69987,2.93528 2.34904,1.7565 3.30117,2.7504 2.6348,2.7504 -0.14095,0 -0.25628,0.11906 -0.25628,0.26458 0,0.14552 0.17859,0.26458 0.39687,0.26458 0.21829,0 0.39688,0.20334 0.39688,0.45187 0,0.24852 0.44353,0.90608 0.98562,1.46123 0.90137,0.92309 1.00437,1.18413 1.20498,3.05387 0.27494,2.56249 0.2741,2.67895 -0.0369,5.0872 -0.42536,3.29414 -1.10345,5.26722 -2.12923,6.19553 -0.30451,0.27559 -0.55367,0.73433 -0.55367,1.01943 0,0.4706 -1.97341,2.53785 -2.44739,2.56377 -0.38677,0.0211 -0.19174,-1.93926 0.24042,-2.4168 0.36333,-0.40147 0.39072,-0.65552 0.15912,-1.47604 -0.56729,-2.00979 -0.86256,-3.5365 -0.86256,-4.4599 0,-2.73603 -1.75603,-5.65932 -3.39956,-5.65932 -0.39382,0 -0.97461,-0.18111 -1.29064,-0.40247 -0.98319,-0.68865 -10.77152,-0.44618 -11.8268,0.29297 -0.29374,0.20574 -0.75341,0.37408 -1.02147,0.37408 -0.26807,0 -1.07093,0.25103 -1.78414,0.55785 -1.0609,0.45638 -1.44277,0.81658 -2.09957,1.98036 -0.44156,0.78239 -0.80327,1.69222 -0.80381,2.02184 -5.6e-4,0.32963 -0.23867,0.98916 -0.52917,1.46562 -0.65592,1.0758 -0.66103,1.02737 0.12925,1.22572 0.78635,0.19736 0.85943,0.48775 1.02159,4.05955 0.11622,2.55992 0.094,2.71198 -0.39599,2.71198 -0.28551,0 -1.10771,-0.6139 -1.82711,-1.36422 z m 22.45421,-21.70288 c 0.0586,-0.50704 -0.0796,-0.7963 -0.4837,-1.01256 -0.75897,-0.4062 -1.31809,-0.15049 -1.31809,0.60281 0,1.35836 1.64888,1.73333 1.80179,0.40975 z"
       id="path877" />
  </g>
</svg>
